<svg width="41" height="42" viewBox="0 0 41 42" fill="none" xmlns="http://www.w3.org/2000/svg">
<g clip-path="url(#clip0_6119_50701)">
<path d="M3.98608 15.9433L5.69441 14.9411V18.7222H35.3055V14.9753L36.9911 15.9433C37.2514 16.0795 37.5542 16.1098 37.8363 16.028C38.1184 15.9461 38.358 15.7585 38.505 15.5041C38.652 15.2498 38.6951 14.9485 38.6252 14.6632C38.5553 14.3779 38.3779 14.1306 38.13 13.9731L20.5 3.82556L2.84719 13.9731C2.71109 14.0443 2.59079 14.1423 2.49354 14.2611C2.3963 14.38 2.3241 14.5174 2.2813 14.6649C2.23851 14.8124 2.22599 14.9671 2.24452 15.1195C2.26304 15.272 2.31221 15.4192 2.38908 15.5522C2.46595 15.6851 2.56892 15.8012 2.69181 15.8934C2.81469 15.9855 2.95495 16.0519 3.10414 16.0884C3.25333 16.1249 3.40837 16.1309 3.55994 16.106C3.7115 16.0811 3.85646 16.0257 3.98608 15.9433ZM20.3291 8.59751C20.4676 8.51754 20.6248 8.47544 20.7847 8.47544C20.9446 8.47544 21.1017 8.51754 21.2402 8.59751L28.8936 13.0278H25.2264L20.7847 10.4767L16.343 13.0278H12.6872L20.3291 8.59751Z" fill="#4580FF"/>
<path d="M37.4126 31.25H36.4445V30.2819C36.4445 29.9346 36.3065 29.6015 36.0609 29.3558C35.8153 29.1102 35.4821 28.9722 35.1348 28.9722H31.8889V20.5786H27.3334V28.9722H22.7778V20.5786H18.2223V28.9722H13.6667V20.5786H9.11117V28.9722H5.86533C5.51797 28.9722 5.18484 29.1102 4.93922 29.3558C4.6936 29.6015 4.55561 29.9346 4.55561 30.2819V31.25H3.58755C3.24019 31.25 2.90706 31.388 2.66144 31.6336C2.41582 31.8792 2.27783 32.2124 2.27783 32.5597V35.8056H38.7223V32.5597C38.7223 32.2124 38.5843 31.8792 38.3387 31.6336C38.093 31.388 37.7599 31.25 37.4126 31.25Z" fill="#4580FF"/>
</g>
<defs>
<clipPath id="clip0_6119_50701">
<rect width="41" height="41" fill="white" transform="translate(0 0.5)"/>
</clipPath>
</defs>
</svg>
