<svg width="15" height="15" viewBox="0 0 15 15" fill="none" xmlns="http://www.w3.org/2000/svg">
<path d="M10.9166 9.66665H10.2583L10.025 9.44165C10.5458 8.83662 10.9264 8.12396 11.1396 7.35466C11.3528 6.58536 11.3934 5.77844 11.2583 4.99165C10.8666 2.67498 8.93331 0.824979 6.59998 0.541646C5.77966 0.437867 4.94647 0.523122 4.16417 0.790886C3.38186 1.05865 2.67118 1.50183 2.08651 2.08651C1.50183 2.67118 1.05865 3.38186 0.790886 4.16417C0.523122 4.94647 0.437867 5.77966 0.541646 6.59998C0.824979 8.93331 2.67498 10.8666 4.99165 11.2583C5.77844 11.3934 6.58536 11.3528 7.35466 11.1396C8.12396 10.9264 8.83662 10.5458 9.44165 10.025L9.66665 10.2583V10.9166L13.2083 14.4583C13.55 14.8 14.1083 14.8 14.45 14.4583C14.7916 14.1166 14.7916 13.5583 14.45 13.2166L10.9166 9.66665ZM5.91665 9.66665C3.84165 9.66665 2.16665 7.99165 2.16665 5.91665C2.16665 3.84165 3.84165 2.16665 5.91665 2.16665C7.99165 2.16665 9.66665 3.84165 9.66665 5.91665C9.66665 7.99165 7.99165 9.66665 5.91665 9.66665Z" fill="black"/>
</svg>
