<svg width="32" height="32" viewBox="0 0 32 32" fill="none" xmlns="http://www.w3.org/2000/svg">
<g clip-path="url(#clip0_21939_8189)">
<g filter="url(#filter0_d_21939_8189)">
<path fill-rule="evenodd" clip-rule="evenodd" d="M17.885 3.7417L28.2557 14.1137C28.7556 14.6138 29.0364 15.2919 29.0364 15.999C29.0364 16.7061 28.7556 17.3843 28.2557 17.8844L17.885 28.255C17.3849 28.755 16.7068 29.0358 15.9997 29.0358C15.2926 29.0358 14.6144 28.755 14.1143 28.255L3.74365 17.8844C3.24373 17.3843 2.96289 16.7061 2.96289 15.999C2.96289 15.2919 3.24373 14.6138 3.74365 14.1137L14.1143 3.7417C14.6144 3.24178 15.2926 2.96094 15.9997 2.96094C16.7068 2.96094 17.3849 3.24178 17.885 3.7417ZM16.0023 19.999C15.6623 19.9987 15.3349 20.1284 15.0873 20.3615C14.8397 20.5945 14.6904 20.9134 14.6702 21.2529C14.6499 21.5924 14.7601 21.9267 14.9782 22.1876C15.1964 22.4485 15.506 22.6162 15.8437 22.6564L16.0037 22.6657C16.3573 22.6657 16.6964 22.5252 16.9465 22.2752C17.1965 22.0251 17.337 21.686 17.337 21.3324C17.337 20.9787 17.1965 20.6396 16.9465 20.3896C16.6964 20.1395 16.3573 19.999 16.0037 19.999H16.0023ZM15.9997 10.6657C15.7424 10.6656 15.4877 10.7172 15.2508 10.8174C15.0138 10.9176 14.7994 11.0644 14.6203 11.2491C14.4413 11.4338 14.3011 11.6526 14.2082 11.8925C14.1153 12.1324 14.0716 12.3886 14.0797 12.6457L14.093 12.8257L14.677 17.4977C14.7155 17.8073 14.8613 18.0935 15.0891 18.3067C15.3168 18.5198 15.6121 18.6463 15.9235 18.6643C16.235 18.6822 16.5428 18.5903 16.7935 18.4047C17.0442 18.2191 17.2219 17.9515 17.2957 17.6484L17.3223 17.4977L17.9063 12.8257C17.9402 12.5553 17.9161 12.2809 17.8358 12.0205C17.7554 11.7601 17.6206 11.5198 17.4403 11.3155C17.26 11.1113 17.0383 10.9477 16.7899 10.8356C16.5415 10.7236 16.2721 10.6657 15.9997 10.6657Z" fill="#E5484D"/>
</g>
</g>
<defs>
<filter id="filter0_d_21939_8189" x="-1.03711" y="-1.03906" width="34.0732" height="34.0742" filterUnits="userSpaceOnUse" color-interpolation-filters="sRGB">
<feFlood flood-opacity="0" result="BackgroundImageFix"/>
<feColorMatrix in="SourceAlpha" type="matrix" values="0 0 0 0 0 0 0 0 0 0 0 0 0 0 0 0 0 0 127 0" result="hardAlpha"/>
<feOffset/>
<feGaussianBlur stdDeviation="2"/>
<feComposite in2="hardAlpha" operator="out"/>
<feColorMatrix type="matrix" values="0 0 0 0 0 0 0 0 0 0 0 0 0 0 0 0 0 0 0.7 0"/>
<feBlend mode="normal" in2="BackgroundImageFix" result="effect1_dropShadow_21939_8189"/>
<feBlend mode="normal" in="SourceGraphic" in2="effect1_dropShadow_21939_8189" result="shape"/>
</filter>
<clipPath id="clip0_21939_8189">
<rect width="32" height="32" fill="white"/>
</clipPath>
</defs>
</svg>
