<svg width="30" height="24" viewBox="0 0 30 24" fill="none" xmlns="http://www.w3.org/2000/svg">
<path d="M29.1666 9.16675V19.0834C29.1666 20.2106 28.7188 21.2916 27.9218 22.0886C27.1248 22.8856 26.0438 23.3334 24.9166 23.3334H5.08325C3.95608 23.3334 2.87508 22.8856 2.07805 22.0886C1.28102 21.2916 0.833252 20.2106 0.833252 19.0834V9.16675H29.1666ZM23.4999 14.8334H19.2499C18.8742 14.8334 18.5139 14.9827 18.2482 15.2483C17.9825 15.514 17.8333 15.8744 17.8333 16.2501C17.8333 16.6258 17.9825 16.9861 18.2482 17.2518C18.5139 17.5175 18.8742 17.6667 19.2499 17.6667H23.4999C23.8756 17.6667 24.236 17.5175 24.5017 17.2518C24.7673 16.9861 24.9166 16.6258 24.9166 16.2501C24.9166 15.8744 24.7673 15.514 24.5017 15.2483C24.236 14.9827 23.8756 14.8334 23.4999 14.8334ZM24.9166 0.666748C26.0438 0.666748 27.1248 1.11451 27.9218 1.91154C28.7188 2.70857 29.1666 3.78958 29.1666 4.91675V6.33341H0.833252V4.91675C0.833252 3.78958 1.28102 2.70857 2.07805 1.91154C2.87508 1.11451 3.95608 0.666748 5.08325 0.666748H24.9166Z" fill="white" fill-opacity="0.65"/>
</svg>
