<svg width="38" height="38" viewBox="0 0 38 38" fill="none" xmlns="http://www.w3.org/2000/svg">
<path d="M0.25 29.9375V37.75H8.0625L31.1042 14.7083L23.2917 6.8958L0.25 29.9375ZM37.1458 8.66663C37.339 8.4739 37.4922 8.24496 37.5967 7.99293C37.7013 7.7409 37.7551 7.47073 37.7551 7.19788C37.7551 6.92503 37.7013 6.65486 37.5967 6.40283C37.4922 6.1508 37.339 5.92187 37.1458 5.72913L32.2708 0.854131C32.0781 0.660999 31.8492 0.507775 31.5971 0.40323C31.3451 0.298685 31.0749 0.244873 30.8021 0.244873C30.5292 0.244873 30.2591 0.298685 30.007 0.40323C29.755 0.507775 29.5261 0.660999 29.3333 0.854131L25.5208 4.66663L33.3333 12.4791L37.1458 8.66663Z" fill="white"/>
</svg>
