<svg width="28" height="43" viewBox="0 0 28 43" fill="none" xmlns="http://www.w3.org/2000/svg">
<path d="M12.1666 28.2123C8.71249 27.744 5.56507 25.9815 3.36084 23.2812C1.15661 20.5809 0.0600679 17.1442 0.292955 13.6663C0.525843 10.1884 2.07078 6.92863 4.61535 4.5463C7.15992 2.16398 10.5142 0.836835 14 0.833258C17.4899 0.829894 20.8506 2.15376 23.4007 4.53646C25.9507 6.91917 27.4993 10.1824 27.7325 13.6646C27.9657 17.1468 26.866 20.5873 24.6563 23.2888C22.4467 25.9902 19.2926 27.7503 15.8333 28.2123V31.9999H25V35.6666H15.8333V42.9999H12.1666V35.6666H2.99995V31.9999H12.1666V28.2123ZM14 24.6666C16.6742 24.6666 19.239 23.6042 21.1299 21.7133C23.0209 19.8223 24.0833 17.2575 24.0833 14.5833C24.0833 11.909 23.0209 9.34426 21.1299 7.45327C19.239 5.56227 16.6742 4.49993 14 4.49993C11.3257 4.49993 8.76095 5.56227 6.86996 7.45327C4.97896 9.34426 3.91662 11.909 3.91662 14.5833C3.91662 17.2575 4.97896 19.8223 6.86996 21.7133C8.76095 23.6042 11.3257 24.6666 14 24.6666Z" fill="white"/>
</svg>
