<svg width="28" height="28" viewBox="0 0 28 28" fill="none" xmlns="http://www.w3.org/2000/svg">
<path d="M17.3208 8.09408L22.3287 3.08333H15.8333V0.25H27.1666V11.5833H24.3333V5.0865L19.3225 10.0972C20.9572 12.24 21.7164 14.9238 21.4466 17.6053C21.1768 20.2869 19.8981 22.7656 17.8693 24.5398C15.8406 26.3139 13.2134 27.2508 10.5199 27.1607C7.82635 27.0706 5.26769 25.9603 3.362 24.0546C1.45631 22.1489 0.346014 19.5903 0.255941 16.8967C0.165868 14.2032 1.10275 11.576 2.87687 9.5473C4.65099 7.51856 7.12977 6.23981 9.81128 5.97C12.4928 5.70018 15.1766 6.45946 17.3194 8.09408H17.3208ZM10.875 24.3333C12.9414 24.3333 14.9233 23.5124 16.3845 22.0512C17.8457 20.59 18.6666 18.6081 18.6666 16.5417C18.6666 14.4752 17.8457 12.4933 16.3845 11.0321C14.9233 9.5709 12.9414 8.75 10.875 8.75C8.80848 8.75 6.82663 9.5709 5.36541 11.0321C3.90419 12.4933 3.08329 14.4752 3.08329 16.5417C3.08329 18.6081 3.90419 20.59 5.36541 22.0512C6.82663 23.5124 8.80848 24.3333 10.875 24.3333Z" fill="white" fill-opacity="0.65"/>
</svg>
