<svg width="36" height="36" viewBox="0 0 36 36" fill="none" xmlns="http://www.w3.org/2000/svg">
<path d="M22.5916 10.6512L29.0724 4.16667H20.6666V0.5H35.3333V15.1667H31.6666V6.759L25.1821 13.2435C27.2975 16.0164 28.2801 19.4897 27.9309 22.9599C27.5818 26.43 25.9269 29.6379 23.3015 31.9338C20.676 34.2297 17.2762 35.4422 13.7905 35.3256C10.3047 35.209 6.99348 33.7722 4.52729 31.306C2.0611 28.8398 0.624254 25.5286 0.507689 22.0428C0.391124 18.557 1.60355 15.1572 3.89948 12.5318C6.1954 9.90637 9.40323 8.25152 12.8734 7.90235C16.3436 7.55317 19.8168 8.53577 22.5898 10.6512H22.5916ZM14.2499 31.6667C16.9242 31.6667 19.4889 30.6043 21.3799 28.7133C23.2709 26.8223 24.3333 24.2576 24.3333 21.5833C24.3333 18.9091 23.2709 16.3443 21.3799 14.4533C19.4889 12.5623 16.9242 11.5 14.2499 11.5C11.5757 11.5 9.01094 12.5623 7.11995 14.4533C5.22896 16.3443 4.16661 18.9091 4.16661 21.5833C4.16661 24.2576 5.22896 26.8223 7.11995 28.7133C9.01094 30.6043 11.5757 31.6667 14.2499 31.6667Z" fill="white"/>
</svg>
