<svg width="28" height="28" viewBox="0 0 28 28" fill="none" xmlns="http://www.w3.org/2000/svg">
<path d="M18.6006 19.8225L20.9806 17.4425C21.3012 17.126 21.7067 16.9093 22.1481 16.8187C22.5894 16.7282 23.0476 16.7677 23.4669 16.9325L26.3675 18.0907C26.7912 18.2627 27.1546 18.5562 27.4117 18.9344C27.6689 19.3126 27.8083 19.7584 27.8125 20.2157V25.5282C27.81 25.8392 27.7446 26.1466 27.6202 26.4317C27.4959 26.7169 27.3151 26.9739 27.0887 27.1873C26.8624 27.4008 26.5952 27.5662 26.3033 27.6736C26.0113 27.7811 25.7007 27.8283 25.39 27.8125C5.06436 26.5482 0.963115 9.33567 0.18749 2.74817C0.151485 2.42468 0.184381 2.09723 0.284016 1.78736C0.38365 1.47749 0.547764 1.19224 0.765561 0.95035C0.983358 0.708466 1.2499 0.515436 1.54766 0.383961C1.84541 0.252486 2.16763 0.185546 2.49311 0.187543H7.62499C8.08294 0.188899 8.53001 0.327228 8.9087 0.584737C9.28739 0.842247 9.58038 1.20716 9.74999 1.63254L10.9081 4.53317C11.0784 4.9508 11.1218 5.40935 11.033 5.85153C10.9442 6.29371 10.7271 6.69992 10.4087 7.01942L8.02874 9.39942C8.02874 9.39942 9.39936 18.675 18.6006 19.8225Z" fill="white" fill-opacity="0.65"/>
</svg>
