<svg width="32" height="32" viewBox="0 0 32 32" fill="none" xmlns="http://www.w3.org/2000/svg">
<g clip-path="url(#clip0_6985_53632)">
<path fill-rule="evenodd" clip-rule="evenodd" d="M17.3337 2.66602C19.4035 2.66594 21.3928 3.4681 22.8836 4.90397C24.3744 6.33984 25.2507 8.29763 25.3283 10.366L25.3337 10.666V21.3327C25.3337 23.4025 24.5316 25.3918 23.0957 26.8826C21.6598 28.3735 19.702 29.2497 17.6337 29.3274L17.3337 29.3327H14.667C12.5972 29.3328 10.6078 28.5306 9.11703 27.0947C7.62622 25.6589 6.74994 23.7011 6.67233 21.6327L6.66699 21.3327V10.666C6.66692 8.59618 7.46908 6.60687 8.90495 5.11605C10.3408 3.62524 12.2986 2.74897 14.367 2.67135L14.667 2.66602H17.3337ZM16.0003 7.99935C15.6467 7.99935 15.3076 8.13983 15.0575 8.38987C14.8075 8.63992 14.667 8.97906 14.667 9.33268V14.666C14.667 15.0196 14.8075 15.3588 15.0575 15.6088C15.3076 15.8589 15.6467 15.9993 16.0003 15.9993C16.3539 15.9993 16.6931 15.8589 16.9431 15.6088C17.1932 15.3588 17.3337 15.0196 17.3337 14.666V9.33268C17.3337 8.97906 17.1932 8.63992 16.9431 8.38987C16.6931 8.13983 16.3539 7.99935 16.0003 7.99935Z" fill="white"/>
</g>
<defs>
<clipPath id="clip0_6985_53632">
<rect width="32" height="32" fill="white"/>
</clipPath>
</defs>
</svg>
